Coordinates
version=1
nRows=29
nColumns=22
inDegrees=yes

Units are S.I. units (second, meters, Newtons, ...)
If the header above contains a line with 'inDegrees', this indicates whether rotational values are in degrees (yes) or radians (no).

endheader
time	pelvis_tilt	pelvis_list	pelvis_rotation	pelvis_tx	pelvis_ty	pelvis_tz	hip_flexion_r	hip_adduction_r	hip_rotation_r	knee_angle_r	ankle_angle_r	subtalar_angle_r	hip_flexion_l	hip_adduction_l	hip_rotation_l	knee_angle_l	ankle_angle_l	subtalar_angle_l	lumbar_extension	lumbar_bending	lumbar_rotation
      2.08000000	    -13.84563202	      0.67193826	    -22.17027586	     -0.25919495	      0.91189444	     -0.06774236	     14.10207028	      5.48656345	      4.17573281	    -62.28639380	      6.71620776	      3.82619054	     50.39584932	     -5.18565031	     -8.39588283	    -46.02288679	     14.16131041	     -2.82634647	     -6.36985959	      2.24384285	     17.05915265
      2.09000000	    -13.02597986	      1.24494085	    -21.78988948	     -0.23890892	      0.91101678	     -0.06296636	     16.31308211	      4.53037818	      4.05369239	    -66.24193853	      7.27464101	      2.73014232	     49.13384725	     -3.87283807	     -8.13905810	    -47.42124525	     16.03349635	     -4.08362727	     -6.65144316	      1.47538109	     16.01754474
      2.10000000	    -12.17544214	      1.93555089	    -21.42036054	     -0.21900317	      0.91005313	     -0.05837026	     18.74335745	      3.39171151	      3.92209389	    -69.96324778	      8.29338595	      1.54087623	     47.80846182	     -2.48431312	     -8.02297490	    -48.66023906	     17.88113874	     -4.93031123	     -7.00765350	      0.59028536	     14.94535981
      2.11000000	    -11.34378598	      2.69693257	    -21.09042582	     -0.19943983	      0.90909134	     -0.05391416	     21.37866612	      2.14390976	      3.81931279	    -73.34293263	      9.61022399	      0.24688886	     46.43548976	     -1.09217550	     -8.05275944	    -49.69088515	     19.67118187	     -5.48899662	     -7.39171209	     -0.32739633	     13.86723560
      2.12000000	    -10.56904446	      3.47399784	    -20.80196910	     -0.18018570	      0.90821207	     -0.04950655	     24.18335319	      0.88293140	      3.75496404	    -76.28858161	     11.12577513	     -1.24446782	     45.02583858	      0.24063802	     -8.19838116	    -50.49062165	     21.35309716	     -5.88714134	     -7.76710921	     -1.21192114	     12.78477563
      2.13000000	     -9.86683202	      4.24329214	    -20.57938827	     -0.16116337	      0.90748384	     -0.04510302	     27.12939558	     -0.34226768	      3.74619143	    -78.74120898	     12.63756956	     -2.70882266	     43.57370581	      1.48098023	     -8.44711506	    -51.04952459	     22.97166619	     -6.11384032	     -8.10139453	     -2.02801950	     11.73462155
      2.14000000	     -9.23896529	      4.96954365	    -20.41340003	     -0.14229506	      0.90696894	     -0.04064396	     30.15331727	     -1.47583339	      3.76710730	    -80.64763165	     14.05833825	     -4.06690262	     42.06828413	      2.60899479	     -8.75900094	    -51.37944411	     24.52359705	     -6.23635278	     -8.38373019	     -2.74578841	     10.71517594
      2.15000000	     -8.67877436	      5.59630335	    -20.26540730	     -0.12349059	      0.90673430	     -0.03611763	     33.15696134	     -2.46384179	      3.74822891	    -81.95854170	     15.38153897	     -5.35066041	     40.48955524	      3.61527019	     -9.04486562	    -51.50661377	     25.97372108	     -6.30761511	     -8.62734179	     -3.30758632	      9.68054750
      2.16000000	     -8.16975016	      6.12801253	    -20.11599692	     -0.10467320	      0.90683276	     -0.03149351	     36.07332403	     -3.31982399	      3.65555650	    -82.66173376	     16.52417771	     -6.46215138	     38.81307282	      4.52740743	     -9.27149921	    -51.42503128	     27.33756955	     -6.34087285	     -8.83204900	     -3.73779272	      8.63597070
      2.17000000	     -7.69216304	      6.55455292	    -19.92674853	     -0.08573456	      0.90730530	     -0.02682569	     38.81641184	     -4.08054293	      3.42842157	    -82.74977999	     17.50783602	     -7.32959206	     37.01958573	      5.37104842	     -9.39244424	    -51.15673273	     28.57751092	     -6.34719766	     -9.01465058	     -4.02671926	      7.54600224
      2.18000000	     -7.23164860	      6.90814016	    -19.66585391	     -0.06660742	      0.90817532	     -0.02214233	     41.34374629	     -4.81557408	      3.04409551	    -82.24294729	     18.28055851	     -7.83253197	     35.09544918	      6.19150452	     -9.40110230	    -50.68725903	     29.69965903	     -6.31844598	     -9.17792518	     -4.22177665	      6.40163117
      2.19000000	     -6.80833896	      7.17498050	    -19.32048427	     -0.04724328	      0.90944169	     -0.01745182	     43.61227361	     -5.51154056	      2.49563680	    -81.13471104	     18.90541108	     -8.12197331	     33.04676864	      6.99279909	     -9.20797009	    -50.00993960	     30.68525048	     -6.26903878	     -9.29865868	     -4.29962797	      5.20963774
      2.20000000	     -6.38402778	      7.38413081	    -18.88626228	     -0.02756407	      0.91113565	     -0.01273852	     45.56901924	     -6.25478318	      1.75231749	    -79.45579109	     19.33400083	     -8.29159215	     30.83577217	      7.78193395	     -8.87711716	    -49.12136800	     31.51610674	     -6.21731111	     -9.40167573	     -4.31593404	      3.98171049
      2.21000000	     -5.97575471	      7.52650705	    -18.35098583	     -0.00756370	      0.91323153	     -0.00803153	     47.19315747	     -7.04483458	      0.80168539	    -77.21752502	     19.58722425	     -8.27960481	     28.47497647	      8.54025824	     -8.37231012	    -48.02462590	     32.18389661	     -6.15133416	     -9.47792479	     -4.24732288	      2.71877735
      2.22000000	     -5.53791623	      7.57170697	    -17.75162320	      0.01278389	      0.91581421	     -0.00323745	     48.39967398	     -7.85115529	     -0.36094931	    -74.43271344	     19.63977151	     -8.00907214	     25.89777497	      9.20974590	     -7.72612865	    -46.71028163	     32.71348951	     -6.08121605	     -9.58669957	     -4.08753357	      1.49549911
      2.23000000	     -5.16558175	      7.57436901	    -17.06560698	      0.03343549	      0.91863107	      0.00161476	     49.30496590	     -8.68531448	     -1.71705700	    -71.14994149	     19.42213370	     -7.44136679	     23.24717060	      9.78560647	     -6.96949899	    -45.22095932	     33.05234617	     -5.94833738	     -9.59982841	     -3.85868407	      0.23901644
      2.24000000	     -4.83031024	      7.51897308	    -16.32804153	      0.05441023	      0.92169493	      0.00660599	     49.86368971	     -9.50707509	     -3.25817203	    -67.39671884	     18.85703833	     -6.56080478	     20.49932558	     10.22339520	     -6.15116677	    -43.57180373	     33.18334203	     -5.73260720	     -9.54664809	     -3.56408417	     -0.96374962
      2.25000000	     -4.53064859	      7.40471671	    -15.56146418	      0.07567784	      0.92492982	      0.01182527	     50.07881950	    -10.26464795	     -4.95303225	    -63.21895199	     17.87934901	     -5.33990925	     17.68267521	     10.48361235	     -5.34219542	    -41.80418411	     33.10031187	     -5.40502035	     -9.42558980	     -3.21076871	     -2.11834927
      2.26000000	     -4.26290694	      7.23548597	    -14.78564194	      0.09724826	      0.92825947	      0.01732349	     49.95946589	    -10.91629363	     -6.76248561	    -58.67591559	     16.44009509	     -3.69636541	     14.83047838	     10.55282063	     -4.58957675	    -39.96699320	     32.79348063	     -4.92749553	     -9.23012852	     -2.80933035	     -3.20427972
      2.27000000	     -4.03581471	      7.02092224	    -14.00633399	      0.11907138	      0.93157223	      0.02315413	     49.54612177	    -11.42014921	     -8.62251687	    -53.84904256	     14.51892538	     -1.58511624	     12.00579513	     10.42848622	     -3.92723891	    -38.12976871	     32.25605625	     -4.27824409	     -8.94872091	     -2.37882697	     -4.23394024
      2.28000000	     -3.84846194	      6.78076167	    -13.23797170	      0.14113902	      0.93475438	      0.02935572	     48.88794401	    -11.76230294	    -10.46361505	    -48.84853975	     12.16978435	      1.10495156	      9.26799779	     10.13425871	     -3.37604302	    -36.37649454	     31.48443552	     -3.42756754	     -8.56898703	     -1.95049857	     -5.18312180
      2.29000000	     -3.71443161	      6.53362341	    -12.46816318	      0.16337094	      0.93769212	      0.03590969	     48.05236741	    -11.93268831	    -12.16596815	    -43.79523683	      9.48487741	      4.37709838	      6.70287070	      9.70863689	     -2.88384318	    -34.81206773	     30.49153903	     -2.38904558	     -8.08178470	     -1.54343883	     -6.10531825
      2.30000000	     -3.62368211	      6.30036959	    -11.70293092	      0.18575578	      0.94030800	      0.04279641	     47.09912119	    -11.97224790	    -13.67509263	    -38.85957981	      6.62651883	      8.17293822	      4.36634649	      9.18883096	     -2.45562341	    -33.53858517	     29.26072444	     -1.20044028	     -7.49655671	     -1.19307653	     -6.94559109
      2.31000000	     -3.58579686	      6.11436861	    -10.92373025	      0.20822004	      0.94251626	      0.04992368	     46.11966411	    -11.94505857	    -14.89731201	    -34.23919371	      3.74845010	     12.33671643	      2.34138033	      8.63305972	     -2.03686463	    -32.66385003	     27.82402213	      0.09013203	     -6.80924263	     -0.93033850	     -7.73665504
      2.32000000	     -3.58545159	      5.97506466	    -10.13701901	      0.23071691	      0.94432307	      0.05721965	     45.15778067	    -11.90397750	    -15.83954371	    -30.13257688	      1.04508029	     16.47896610	      0.66639459	      8.06695969	     -1.60790163	    -32.27994480	     26.15754061	      1.38598089	     -6.05508137	     -0.75667234	     -8.44583952
      2.33000000	     -3.61601129	      5.87383714	     -9.34278644	      0.25316299	      0.94573444	      0.06460392	     44.26224852	    -11.89075530	    -16.53401188	    -26.72964937	     -1.33080645	     20.15119588	     -0.61024341	      7.50178495	     -1.16390715	    -32.47796318	     24.25103916	      2.59488405	     -5.26427491	     -0.65645861	     -9.07884746
      2.34000000	     -3.67266287	      5.76913082	     -8.54607942	      0.27547341	      0.94676963	      0.07202216	     43.45986965	    -11.90550544	    -17.08285764	    -24.17830899	     -3.25568226	     22.86123665	     -1.45390264	      6.90649559	     -0.73166477	    -33.32882917	     22.09778430	      3.61319590	     -4.46875538	     -0.57661517	     -9.64494928
      2.35000000	     -3.73543411	      5.67274671	     -7.80463721	      0.29752597	      0.94741628	      0.07948904	     42.79822426	    -11.93418777	    -17.44938121	    -22.58512637	     -4.70859806	     24.40055300	     -1.87561009	      6.32923205	     -0.31958488	    -34.82386540	     19.73513275	      4.43362677	     -3.71120973	     -0.53516126	    -10.03176024
      2.36000000	     -3.78908324	      5.50219484	     -7.12447223	      0.31926633	      0.94770337	      0.08700835	     42.22125758	    -11.88693582	    -17.70224219	    -21.90273380	     -5.62718664	     24.45724519	     -1.89448410	      5.68776734	      0.02568588	    -36.96083682	     17.17468047	      4.85685105	     -3.03311636	     -0.42364983	    -10.31738590
